<svg xmlns="http://www.w3.org/2000/svg" xmlns:xlink="http://www.w3.org/1999/xlink" width="500" zoomAndPan="magnify" viewBox="0 0 375 374.999991" height="500" preserveAspectRatio="xMidYMid meet" version="1.0"><defs><clipPath id="840f0883f6"><path d="M 58.257812 140.101562 L 317 140.101562 L 317 374.851562 L 58.257812 374.851562 Z M 58.257812 140.101562 " clip-rule="nonzero"/></clipPath><clipPath id="f4d7098a70"><path d="M 187.5 0 C 83.945312 0 0 83.945312 0 187.5 C 0 291.054688 83.945312 375 187.5 375 C 291.054688 375 375 291.054688 375 187.5 C 375 83.945312 291.054688 0 187.5 0 Z M 187.5 0 " clip-rule="nonzero"/></clipPath><clipPath id="a7610db44b"><path d="M 150.609375 54.011719 L 224.390625 54.011719 L 224.390625 127.789062 L 150.609375 127.789062 Z M 150.609375 54.011719 " clip-rule="nonzero"/></clipPath><clipPath id="793960bd32"><path d="M 187.5 54.011719 C 167.125 54.011719 150.609375 70.527344 150.609375 90.898438 C 150.609375 111.273438 167.125 127.789062 187.5 127.789062 C 207.875 127.789062 224.390625 111.273438 224.390625 90.898438 C 224.390625 70.527344 207.875 54.011719 187.5 54.011719 Z M 187.5 54.011719 " clip-rule="nonzero"/></clipPath><clipPath id="4de0eb26b3"><path d="M 146.066406 53.777344 L 214.285156 53.777344 L 214.285156 127.597656 L 146.066406 127.597656 Z M 146.066406 53.777344 " clip-rule="nonzero"/></clipPath><clipPath id="16faef909e"><path d="M 180.175781 53.777344 C 161.335938 53.777344 146.066406 70.296875 146.066406 90.667969 C 146.066406 111.042969 161.335938 127.558594 180.175781 127.558594 C 199.015625 127.558594 214.285156 111.042969 214.285156 90.667969 C 214.285156 70.296875 199.015625 53.777344 180.175781 53.777344 Z M 180.175781 53.777344 " clip-rule="nonzero"/></clipPath><clipPath id="de4d50da46"><path d="M 300.507812 55.761719 L 355.457031 55.761719 L 355.457031 101.117188 L 300.507812 101.117188 Z M 300.507812 55.761719 " clip-rule="nonzero"/></clipPath><clipPath id="d2231c67e1"><path d="M 310.8125 78.390625 C 330.613281 67.890625 333.6875 64.664062 333.539062 63.765625 C 333.460938 63.390625 332.335938 63.539062 332.1875 63.164062 C 331.960938 62.789062 332.261719 61.964844 332.710938 61.214844 C 333.386719 60.015625 335.261719 57.691406 336.6875 56.863281 C 337.886719 56.113281 339.3125 55.890625 340.585938 55.964844 C 341.9375 55.964844 343.289062 56.191406 344.488281 56.941406 C 345.988281 57.839844 347.710938 59.941406 348.386719 61.515625 C 348.914062 62.789062 349.0625 63.765625 348.835938 65.488281 C 348.3125 68.863281 346.363281 77.191406 342.761719 80.265625 C 339.085938 83.414062 329.710938 85.738281 326.789062 84.164062 C 324.6875 83.039062 324.085938 79.214844 324.085938 76.441406 C 324.011719 73.289062 327.6875 67.664062 327.3125 66.316406 C 327.164062 65.863281 326.488281 65.941406 326.488281 65.640625 C 326.488281 64.964844 328.363281 63.390625 329.488281 62.714844 C 330.6875 62.113281 332.1875 61.664062 333.539062 61.664062 C 334.886719 61.589844 336.386719 61.890625 337.585938 62.488281 C 338.863281 63.089844 340.0625 63.988281 340.8125 65.191406 C 341.789062 66.691406 342.539062 69.390625 342.460938 71.113281 C 342.460938 72.613281 341.9375 73.738281 341.113281 75.089844 C 339.914062 77.039062 337.738281 79.214844 335.039062 81.089844 C 331.289062 83.714844 323.636719 88.738281 319.8125 88.289062 C 317.261719 87.914062 313.511719 84.164062 313.8125 83.339844 C 314.1875 82.363281 321.6875 84.539062 324.988281 83.941406 C 327.835938 83.414062 330.164062 81.765625 332.5625 80.488281 C 334.8125 79.214844 337.136719 77.789062 338.9375 76.289062 C 340.4375 74.941406 341.1875 72.839844 342.835938 72.089844 C 344.5625 71.265625 347.335938 71.191406 349.289062 71.863281 C 351.164062 72.464844 353.1875 74.339844 354.238281 75.914062 C 355.0625 77.191406 355.363281 78.691406 355.4375 80.039062 C 355.511719 81.464844 355.289062 82.964844 354.539062 84.316406 C 353.636719 85.964844 350.335938 89.039062 349.886719 88.738281 C 349.289062 88.363281 354.3125 76.890625 354.761719 77.039062 C 355.210938 77.113281 354.085938 88.066406 352.210938 90.839844 C 350.9375 92.566406 348.988281 93.390625 347.1875 93.765625 C 345.460938 94.140625 343.136719 93.914062 341.488281 93.089844 C 339.835938 92.339844 338.113281 90.765625 337.289062 89.113281 C 336.460938 87.464844 336.085938 85.214844 336.386719 83.414062 C 336.6875 81.613281 338.039062 79.441406 339.085938 78.316406 C 339.835938 77.488281 340.511719 77.039062 341.5625 76.664062 C 342.988281 76.140625 345.761719 75.839844 347.335938 76.066406 C 348.386719 76.214844 349.136719 76.515625 350.039062 77.191406 C 351.3125 78.089844 353.113281 79.890625 353.789062 81.613281 C 354.386719 83.339844 354.539062 85.589844 354.011719 87.390625 C 353.5625 89.113281 351.914062 91.140625 350.789062 92.191406 C 349.960938 92.863281 349.210938 93.238281 348.164062 93.539062 C 346.664062 93.914062 343.886719 93.839844 342.386719 93.464844 C 341.261719 93.238281 340.585938 92.863281 339.761719 92.113281 C 338.636719 91.066406 337.0625 88.738281 336.539062 87.316406 C 336.164062 86.265625 336.085938 85.441406 336.238281 84.390625 C 336.460938 82.816406 338.113281 78.914062 338.414062 78.988281 C 338.710938 79.066406 337.8125 84.089844 338.1875 84.164062 C 338.710938 84.316406 340.738281 73.816406 342.835938 72.089844 C 344.039062 71.113281 345.6875 71.265625 347.113281 71.414062 C 348.539062 71.488281 350.039062 72.015625 351.238281 72.765625 C 352.4375 73.515625 353.5625 74.566406 354.238281 75.914062 C 355.0625 77.566406 355.664062 80.265625 355.289062 82.214844 C 354.835938 84.238281 353.488281 85.890625 351.835938 87.691406 C 349.4375 90.164062 344.863281 93.089844 341.335938 95.113281 C 338.113281 96.914062 334.8125 98.339844 331.738281 99.316406 C 328.960938 100.214844 326.863281 100.964844 323.789062 101.039062 C 319.4375 101.265625 312.085938 101.039062 308.039062 99.089844 C 304.886719 97.515625 301.8125 94.816406 300.914062 91.890625 C 300.011719 89.039062 301.363281 84.539062 302.789062 81.765625 C 304.136719 79.140625 306.386719 77.265625 308.863281 75.539062 C 311.5625 73.589844 315.386719 72.988281 318.613281 71.039062 C 322.289062 68.863281 326.636719 64.140625 329.488281 62.714844 C 331.0625 61.964844 332.113281 61.589844 333.539062 61.664062 C 335.335938 61.664062 337.886719 62.414062 339.386719 63.691406 C 340.886719 64.890625 342.164062 67.140625 342.386719 69.015625 C 342.6875 70.964844 342.539062 74.265625 341.113281 75.089844 C 339.164062 76.214844 330.988281 73.964844 329.710938 71.566406 C 328.4375 69.238281 331.511719 63.613281 332.710938 61.214844 C 333.386719 59.789062 333.914062 58.816406 335.039062 57.988281 C 336.386719 56.941406 338.9375 56.039062 340.585938 55.964844 C 342.011719 55.890625 343.363281 56.339844 344.488281 56.941406 C 345.6875 57.613281 346.738281 58.589844 347.488281 59.640625 C 348.238281 60.765625 348.761719 61.890625 348.835938 63.464844 C 348.914062 65.863281 347.789062 69.988281 346.289062 72.691406 C 344.863281 75.238281 342.460938 77.339844 340.4375 79.289062 C 338.488281 81.089844 336.914062 82.441406 334.289062 84.089844 C 330.386719 86.566406 323.039062 90.238281 318.988281 91.664062 C 316.4375 92.566406 314.488281 93.316406 312.539062 93.089844 C 310.8125 92.863281 308.863281 91.816406 307.8125 90.539062 C 306.6875 89.265625 305.9375 87.015625 305.863281 85.515625 C 305.789062 84.238281 306.085938 83.039062 306.761719 81.914062 C 307.585938 80.640625 310.8125 78.390625 310.8125 78.390625 " clip-rule="nonzero"/></clipPath><clipPath id="89fee29e9f"><path d="M 312.898438 57.925781 L 328.210938 57.925781 L 328.210938 73.238281 L 312.898438 73.238281 Z M 312.898438 57.925781 " clip-rule="nonzero"/></clipPath><clipPath id="959dfc03f5"><path d="M 320.554688 57.925781 C 316.328125 57.925781 312.898438 61.351562 312.898438 65.582031 C 312.898438 69.808594 316.328125 73.238281 320.554688 73.238281 C 324.785156 73.238281 328.210938 69.808594 328.210938 65.582031 C 328.210938 61.351562 324.785156 57.925781 320.554688 57.925781 Z M 320.554688 57.925781 " clip-rule="nonzero"/></clipPath><clipPath id="5da28869df"><path d="M 305 65 L 374 65 L 374 137 L 305 137 Z M 305 65 " clip-rule="nonzero"/></clipPath><clipPath id="e41c47c079"><path d="M 296.507812 97.421875 L 365.21875 53.128906 L 392.851562 95.996094 L 324.140625 140.289062 Z M 296.507812 97.421875 " clip-rule="nonzero"/></clipPath><clipPath id="1820fd32fb"><path d="M 296.507812 97.421875 L 365.21875 53.128906 L 392.851562 95.996094 L 324.140625 140.289062 Z M 296.507812 97.421875 " clip-rule="nonzero"/></clipPath><clipPath id="46c53c1fc5"><path d="M 296.507812 97.421875 L 365.21875 53.128906 L 392.851562 95.996094 L 324.140625 140.289062 Z M 296.507812 97.421875 " clip-rule="nonzero"/></clipPath><clipPath id="1b185c2b88"><path d="M 324 80 L 370 80 L 370 117 L 324 117 Z M 324 80 " clip-rule="nonzero"/></clipPath><clipPath id="84ba93b02e"><path d="M 296.507812 97.421875 L 365.21875 53.128906 L 392.851562 95.996094 L 324.140625 140.289062 Z M 296.507812 97.421875 " clip-rule="nonzero"/></clipPath><clipPath id="a2ea967ddd"><path d="M 296.507812 97.421875 L 365.21875 53.128906 L 392.851562 95.996094 L 324.140625 140.289062 Z M 296.507812 97.421875 " clip-rule="nonzero"/></clipPath><clipPath id="7c950f578f"><path d="M 296.507812 97.421875 L 365.21875 53.128906 L 392.851562 95.996094 L 324.140625 140.289062 Z M 296.507812 97.421875 " clip-rule="nonzero"/></clipPath></defs><g clip-path="url(#840f0883f6)"><path fill="#57a4d4" d="M 310.945312 163.332031 C 279.644531 163.332031 235.425781 165.949219 212.828125 188.535156 C 203.046875 198.316406 198.160156 214.265625 199.429688 232.316406 C 199.59375 234.703125 201.179688 236.734375 203.457031 237.484375 C 205.722656 238.226562 208.214844 237.53125 209.765625 235.710938 C 222.332031 220.925781 237.953125 209.074219 256.226562 200.492188 C 257.777344 199.75 259.609375 199.691406 261.277344 200.277344 C 262.742188 200.808594 263.894531 201.804688 264.492188 203.085938 C 265.738281 205.714844 265.339844 209.179688 261.207031 211.132812 C 260.96875 211.25 260.757812 211.402344 260.523438 211.507812 C 260.441406 211.542969 260.347656 211.53125 260.277344 211.566406 C 215.25 232.730469 193.109375 269.652344 183.058594 307.625 C 175.730469 260.082031 160.25 232.09375 145.628906 214.914062 C 135.046875 201.195312 124.640625 193.925781 118.625 189.816406 C 117.511719 189.050781 114.140625 186.75 112.742188 185.351562 C 110.453125 183.0625 110.453125 179.339844 112.742188 177.046875 C 115.03125 174.769531 118.769531 174.769531 121.316406 177.308594 C 121.9375 177.859375 122.9375 178.5625 124.207031 179.410156 L 125.25 180.113281 C 133.753906 185.9375 149.585938 196.753906 163.632812 220.046875 C 164.886719 222.125 167.320312 223.238281 169.679688 222.792969 C 172.078125 222.371094 173.957031 220.527344 174.425781 218.140625 C 177.492188 202.488281 176.117188 179.257812 162.152344 165.292969 C 139.554688 142.71875 95.335938 140.101562 64.050781 140.101562 C 60.808594 140.101562 58.175781 142.730469 58.175781 145.972656 C 58.175781 177.269531 60.796875 221.488281 83.382812 244.085938 C 92.800781 253.503906 107.328125 257.734375 121.761719 257.734375 C 133.542969 257.734375 145.085938 254.785156 153.929688 249.675781 C 165.992188 274.667969 175.621094 312.003906 175.621094 369.117188 C 175.621094 372.359375 178.253906 374.992188 181.496094 374.992188 C 184.738281 374.992188 187.367188 372.359375 187.367188 369.117188 C 187.367188 337.253906 192.828125 299.015625 213.136719 267.539062 C 221.273438 275.492188 235.285156 280.53125 250.8125 281 C 251.585938 281.023438 252.351562 281.035156 253.113281 281.035156 C 268.886719 281.035156 282.828125 276.089844 291.601562 267.304688 C 314.195312 244.707031 316.804688 200.492188 316.804688 169.191406 C 316.816406 165.949219 314.195312 163.332031 310.945312 163.332031 Z M 310.945312 163.332031 " fill-opacity="1" fill-rule="nonzero"/></g><g clip-path="url(#f4d7098a70)"><path stroke-linecap="butt" transform="matrix(0.75, 0, 0, 0.75, 0.0000045, 0.000000000000042633)" fill="none" stroke-linejoin="miter" d="M 249.999994 -0.000000000000056843 C 111.927078 -0.000000000000056843 -0.000006 111.927084 -0.000006 250 C -0.000006 388.072917 111.927078 500.000001 249.999994 500.000001 C 388.072911 500.000001 499.999995 388.072917 499.999995 250 C 499.999995 111.927084 388.072911 -0.000000000000056843 249.999994 -0.000000000000056843 Z M 249.999994 -0.000000000000056843 " stroke="#000000" stroke-width="38" stroke-opacity="1" stroke-miterlimit="4"/></g><g clip-path="url(#a7610db44b)"><g clip-path="url(#793960bd32)"><path fill="#57a4d4" d="M 150.609375 54.011719 L 224.390625 54.011719 L 224.390625 127.789062 L 150.609375 127.789062 Z M 150.609375 54.011719 " fill-opacity="1" fill-rule="nonzero"/></g></g><g clip-path="url(#4de0eb26b3)"><g clip-path="url(#16faef909e)"><path fill="#3f6b86" d="M 146.066406 53.777344 L 214.285156 53.777344 L 214.285156 127.597656 L 146.066406 127.597656 Z M 146.066406 53.777344 " fill-opacity="1" fill-rule="nonzero"/></g></g><g clip-path="url(#de4d50da46)"><g clip-path="url(#d2231c67e1)"><path fill="#ffffff" d="M 297.914062 52.964844 L 358.453125 52.964844 L 358.453125 104.113281 L 297.914062 104.113281 Z M 297.914062 52.964844 " fill-opacity="1" fill-rule="nonzero"/></g></g><g clip-path="url(#89fee29e9f)"><g clip-path="url(#959dfc03f5)"><path fill="#000000" d="M 312.898438 57.925781 L 328.210938 57.925781 L 328.210938 73.238281 L 312.898438 73.238281 Z M 312.898438 57.925781 " fill-opacity="1" fill-rule="nonzero"/></g></g><g clip-path="url(#5da28869df)"><g clip-path="url(#e41c47c079)"><g clip-path="url(#1820fd32fb)"><g clip-path="url(#46c53c1fc5)"><path fill="#000000" d="M 352.1875 70.375 L 331.566406 74.929688 L 331.328125 74.984375 L 331.179688 75.179688 L 318.515625 92.082031 L 305.558594 109.375 L 309.988281 108.398438 L 315.101562 107.269531 C 315.320312 109.574219 316.589844 113.367188 321.398438 118.359375 C 320.761719 119.261719 320.699219 120.496094 321.339844 121.488281 C 321.796875 122.195312 322.515625 122.628906 323.285156 122.746094 C 326.753906 129.25 323.167969 132.777344 321.886719 133.765625 C 321.484375 134.078125 321.285156 134.609375 321.453125 135.097656 C 322.167969 137.164062 328.144531 135.871094 331.585938 134.933594 C 333.101562 134.519531 334.09375 133.046875 333.886719 131.472656 C 333.078125 125.34375 328.652344 121.839844 326.417969 120.4375 C 326.519531 119.78125 326.394531 119.085938 326.003906 118.480469 C 325.332031 117.4375 324.089844 116.992188 322.960938 117.28125 C 321.21875 115.191406 317.59375 110.414062 317.511719 106.738281 L 323.1875 105.484375 C 322.246094 102.339844 326.160156 98.476562 327.527344 97.132812 C 330.527344 94.175781 334.910156 90.789062 339.871094 87.59375 C 344.804688 84.410156 349.671875 81.832031 353.574219 80.332031 C 355.324219 79.660156 360.28125 77.753906 362.792969 79.730469 L 370.570312 69.347656 L 373.289062 65.714844 Z M 352.1875 70.375 " fill-opacity="1" fill-rule="nonzero"/></g></g></g></g><g clip-path="url(#1b185c2b88)"><g clip-path="url(#84ba93b02e)"><g clip-path="url(#a2ea967ddd)"><g clip-path="url(#7c950f578f)"><path fill="#000000" d="M 325.0625 105.398438 L 332.078125 116.285156 C 335.109375 109.324219 340.144531 103.164062 346.984375 98.753906 C 353.824219 94.34375 361.515625 92.304688 369.105469 92.417969 L 362.074219 81.507812 C 358.339844 75.722656 321.328125 99.613281 325.0625 105.398438 Z M 325.0625 105.398438 " fill-opacity="1" fill-rule="nonzero"/></g></g></g></g></svg>